<?xml version="1.0" encoding="UTF-8"?>
<svg id="Livello_1" data-name="Livello 1" xmlns="http://www.w3.org/2000/svg" viewBox="0 0 988.54 757.84">
  <defs>
    <style>
      .cls-1 {
        opacity: .75;
      }

      .cls-2 {
        opacity: .4;
      }

      .cls-2, .cls-3, .cls-4 {
        stroke-width: .83px;
      }

      .cls-2, .cls-3, .cls-4, .cls-5 {
        fill: none;
      }

      .cls-2, .cls-3, .cls-4, .cls-5, .cls-6 {
        stroke: #1d1d1b;
        stroke-miterlimit: 10;
      }

      .cls-7, .cls-6 {
        fill: #1d1d1b;
      }

      .cls-3 {
        opacity: .6;
      }

      .cls-5 {
        stroke-width: 2px;
      }

      .cls-8 {
        opacity: .5;
      }
    </style>
  </defs>
  <line class="cls-5" x1="494.27" y1="394.4" x2="494.27" y2="470.08"/>
  <g>
    <path class="cls-6" d="M92.76,685.11c-2.67,0-5.03-.54-7.09-1.61-2.06-1.07-3.09-2.88-3.09-5.44.75-6.73,5.19-13.92,13.31-21.58,8.12-7.66,17.66-14.53,28.62-20.62-3.65-5.22-8-10.53-13.05-15.92-5.63-6.03-10.5-12.21-14.62-18.53-3.54-5.39-5.31-11.17-5.31-17.31,0-4.41,1.25-8.7,3.74-12.88,2.49-4.18,6.06-7.74,10.7-10.7,7.77-5.05,15.72-7.66,23.84-7.83,2.73,0,4.97.64,6.74,1.91,1.77,1.28,2.65,3.16,2.65,5.65-.29,4.29-2.03,8.41-5.22,12.36-.52.41-1.02.61-1.48.61-1.04,0-1.57-.49-1.57-1.48,0-.64.29-1.13.87-1.48,3.71-3.07,5.57-6.38,5.57-9.92,0-1.86-.7-3.29-2.09-4.31-1.39-1.01-3.25-1.52-5.57-1.52-8.18.41-15.56,2.96-22.14,7.66-6.58,4.7-10.69,10.85-12.31,18.45-.12.93-.17,1.88-.17,2.87,0,5.28,1.73,10.74,5.18,16.4,3.45,5.65,8.08,11.56,13.88,17.71,5.05,5.51,9.48,11.02,13.31,16.53,17.69-9.92,32.91-14.88,45.67-14.88.58,0,.87.32.87.96,0,.46-.29.75-.87.87-12.3,0-27.2,4.9-44.72,14.7,3.65,5.45,5.48,11.37,5.48,17.75l-.09,3.04c-1.74,8.53-6.73,15.37-14.96,20.53-8.35,5.16-17.05,7.83-26.1,8ZM92.76,683.28c7.08,0,14.7-2.49,22.88-7.48,8.23-4.99,13.14-11.45,14.7-19.4l.09-2.87c0-5.8-1.65-11.16-4.96-16.09-10.73,6.03-20.1,12.79-28.1,20.27-8,7.48-12.35,14.24-13.05,20.27,0,3.54,2.81,5.31,8.44,5.31Z"/>
    <path class="cls-6" d="M233.18,628.38c.41,0,.68.06.83.17.14.12.25.23.3.35.06.12.09.29.09.52l-.43.52c-16.18,8.99-29.49,13.48-39.93,13.48-3.71,0-6.61-.71-8.7-2.13-2.09-1.42-3.31-3.44-3.65-6.05-.35.35-1.33,1.28-2.96,2.78-3.42,3.13-6.21,4.7-8.35,4.7-3.13,0-4.79-1.83-4.96-5.48,0-1.86.7-3.96,2.09-6.31s3.16-4.39,5.31-6.13c2.15-1.74,4.38-2.61,6.7-2.61,1.91,0,3.26.55,4.05,1.65.78,1.1,1.17,2.38,1.17,3.83,0,.41-.12.64-.35.7-.23.06-.46.09-.7.09-.12,0-.25-.03-.39-.09-.15-.06-.28-.14-.39-.26-.12-.12-.17-.29-.17-.52,0-1.57-.96-2.38-2.87-2.44-1.51,0-3.12.78-4.83,2.35-1.71,1.56-3.15,3.36-4.31,5.39-1.16,2.03-1.74,3.74-1.74,5.13,0,1.74.52,2.7,1.57,2.87,1.27,0,2.9-.78,4.87-2.35,1.97-1.57,4.12-3.6,6.44-6.09.29-.52.78-.78,1.48-.78,1.27,0,1.91.55,1.91,1.65,0,5.45,2.96,8.18,8.87,8.18,9.98,0,22.94-4.32,38.89-12.96l.17-.17Z"/>
    <path class="cls-6" d="M240.49,645.26c-1.68,0-3.21-.88-4.57-2.65-1.36-1.77-2.45-3.83-3.26-6.18-.81-2.35-1.22-4.51-1.22-6.48,0-.99.15-1.91.44-2.79.29-.87,1.13-1.3,2.52-1.3,1.68,0,2.55.49,2.61,1.48-.46,1.97-.7,3.8-.7,5.48,0,1.33.16,2.83.48,4.48.32,1.65.8,3.09,1.44,4.31.64,1.22,1.39,1.83,2.26,1.83,1.57,0,4.1-1.46,7.61-4.39,3.51-2.93,6.83-6.34,9.96-10.22.06-.46.26-1.03.61-1.7.35-.67.74-1.26,1.17-1.78s.88-.78,1.35-.78c.23.12.45.21.65.26.2.06.38.13.52.22.14.09.22.28.22.57s-.09.52-.26.7c-1.04,1.1-1.57,2.21-1.57,3.31,0,2.21,1.23,4.09,3.7,5.65,2.46,1.57,5.49,2.41,9.09,2.52,11.25,0,22.07-2.35,32.45-7.05l5.74-2.44c.7,0,1.04.29,1.04.87,0,.46-.52.9-1.57,1.3l-4.52,1.91c-10.96,4.81-22.01,7.22-33.15,7.22-3.65,0-7-.81-10.05-2.44-3.04-1.62-4.83-3.51-5.35-5.65-2.84,3.65-6.03,6.86-9.57,9.61-3.54,2.76-6.24,4.13-8.09,4.13Z"/>
    <path class="cls-6" d="M318.09,643.87c-6.26,0-9.54-2.64-9.83-7.92,0-2.9.81-5.45,2.44-7.65,1.62-2.21,3.97-3.39,7.05-3.57.87,0,1.65.23,2.35.7.7.46,1.04,1.13,1.04,2,0,1.97-.99,3.37-2.96,4.18-1.97.81-3.92,1.22-5.83,1.22-.17.81-.26,1.77-.26,2.87,0,1.91.54,3.45,1.61,4.61,1.07,1.16,2.54,1.74,4.39,1.74,4.41,0,9.08-.64,14.01-1.91,4.93-1.28,9.95-2.96,15.05-5.05,5.1-2.09,10.21-4.32,15.31-6.7.29,0,.57.06.83.17.26.12.39.38.39.78,0,.12-.04.26-.13.44s-.19.26-.3.26c-.12.12-1.65.87-4.61,2.26-2.96,1.39-6.73,2.99-11.31,4.78-4.58,1.8-9.47,3.38-14.66,4.74-5.19,1.36-10.05,2.04-14.57,2.04ZM312.87,631.08c1.51-.06,2.96-.38,4.35-.96,1.39-.58,2.09-1.48,2.09-2.7,0-.58-.52-.87-1.57-.87-2.15,0-3.77,1.51-4.87,4.52Z"/>
    <path class="cls-6" d="M451.64,677.02c-.58,0-1.04-.09-1.39-.26-.35-.17-.52-.55-.52-1.13,0-8.93,2.87-23.81,8.61-44.63.41-3.59.68-6.57.83-8.92.14-2.35.22-4.71.22-7.09,0-1.97.06-4.35.17-7.13,0-13.57-2.58-23.29-7.74-29.14-5.57-5.51-13.69-8.82-24.36-9.92-10.61-1.1-20.24-1.65-28.88-1.65-.87,0-1.33-.55-1.39-1.65,0-1.04.46-1.57,1.39-1.57h.17c22.91-3.54,50.02-5.77,81.34-6.7,1.39-4.58,2.26-7.68,2.61-9.31.35-1.45,1.25-2.17,2.7-2.17,1.45.12,2.17.93,2.17,2.44,0,.58-.99,3.57-2.96,8.96,4.93-.12,9.95-.17,15.05-.17,21.69,0,41.38,1.19,59.07,3.57.7,0,1.04.38,1.04,1.13,0,.46-.12.75-.35.87-.23.12-.49.18-.78.18-16.36-2.32-35.32-3.48-56.9-3.48-5.8,0-11.78.09-17.92.26-9.86,27.55-17.92,52.98-24.19,76.3-1.68,11.48-4.15,25-7.4,40.54-.12.17-.2.3-.26.39-.06.09-.17.19-.35.3ZM461.29,620.47c3.83-13.69,9.86-34.02,18.1-60.99-23.84.76-44.23,2.23-61.16,4.44,3.71,0,9.16.84,16.36,2.52,7.19,1.62,13.4,5.34,18.62,11.14,5.74,6.44,8.61,16.82,8.61,31.14,0,3.83-.17,7.74-.52,11.75Z"/>
    <path class="cls-6" d="M498.01,649.35c-1.1,0-2-.32-2.7-.96-.7-.64-1.04-1.36-1.04-2.17,0-7.25,1.46-15.49,4.39-24.71,2.93-9.22,6.7-18.38,11.31-27.49,4.61-9.1,9.53-17.25,14.75-24.45,8.06-11.19,15.37-17.08,21.92-17.66,3.31,0,4.96,1.86,4.96,5.57s-1.97,8.92-5.92,15.44c-3.95,6.53-9.06,13.73-15.36,21.62-6.29,7.89-13.09,15.92-20.4,24.1-5.69,6.5-8.76,9.92-9.22,10.27-2.09,6.73-3.13,12.56-3.13,17.49.06.75.26,1.13.61,1.13.46,0,1.25-.55,2.35-1.65,1.1-1.1,2.17-2.3,3.22-3.61s1.8-2.28,2.26-2.91c4.58-5.97,8.32-8.96,11.22-8.96,2.44,0,4.06.64,4.87,1.91.81,1.28,1.22,2.87,1.22,4.78,0,1.22-.03,2.29-.09,3.22l-.09,1.91c0,.87.09,1.74.26,2.61.12.64.87.96,2.26.96,4.47,0,11.66-2.32,21.58-6.96l19.4-10.53c.81,0,1.22.26,1.22.78v.44c0,.23-.12.35-.35.35-1.16.76-4.9,2.84-11.22,6.26-13.92,7.6-24.13,11.4-30.62,11.4-2.03-.12-3.54-.55-4.52-1.3-.99-.75-1.64-1.7-1.96-2.83-.32-1.13-.48-2.36-.48-3.7,0-.75.06-1.51.17-2.26.12-.75.17-1.48.17-2.18,0-.64-.09-1.36-.26-2.18-.06-.58-.58-.87-1.57-.87-1.57,0-3.19.84-4.87,2.52-1.68,1.68-3.77,4.12-6.26,7.31l-3.48,4.35c-1.8,1.97-3.34,2.96-4.61,2.96ZM501.92,624.9c9.4-9.97,18.79-21.02,28.19-33.15,13.17-16.94,19.75-28.33,19.75-34.19,0-2.55-1.04-3.83-3.13-3.83-2.67,0-6.02,2.29-10.05,6.87-4.03,4.58-8.29,10.54-12.79,17.88-4.5,7.34-8.73,15.24-12.7,23.71-3.97,8.47-7.06,16.04-9.26,22.71Z"/>
    <path class="cls-6" d="M573.18,643.87c-6.26,0-9.54-2.64-9.83-7.92,0-2.9.81-5.45,2.44-7.65,1.62-2.21,3.97-3.39,7.05-3.57.87,0,1.65.23,2.35.7.7.46,1.04,1.13,1.04,2,0,1.97-.99,3.37-2.96,4.18-1.97.81-3.92,1.22-5.83,1.22-.17.81-.26,1.77-.26,2.87,0,1.91.54,3.45,1.61,4.61s2.54,1.74,4.39,1.74c4.41,0,9.08-.64,14.01-1.91s9.95-2.96,15.05-5.05,10.21-4.32,15.31-6.7c.29,0,.57.06.83.17.26.12.39.38.39.78,0,.12-.04.26-.13.44-.09.17-.19.26-.3.26-.12.12-1.65.87-4.61,2.26-2.96,1.39-6.73,2.99-11.31,4.78-4.58,1.8-9.47,3.38-14.66,4.74-5.19,1.36-10.05,2.04-14.57,2.04ZM567.96,631.08c1.51-.06,2.96-.38,4.35-.96,1.39-.58,2.09-1.48,2.09-2.7,0-.58-.52-.87-1.57-.87-2.15,0-3.77,1.51-4.87,4.52Z"/>
    <path class="cls-6" d="M674.44,685.11c-3.77,0-6.64-.99-8.61-2.96-1.97-1.97-2.96-4.44-2.96-7.39,0-4.12,1.23-8.29,3.7-12.53,2.46-4.23,5.7-8.38,9.7-12.44,4-4.06,8.32-7.86,12.96-11.4,3.25-22.97,7.51-46.81,12.79-71.51.4-1.45,1.25-2.18,2.52-2.18.64,0,1.19.23,1.65.7.46.46.7,1.04.7,1.74,0,.41-.09.93-.26,1.57-1.91,5.45-4.19,14.62-6.83,27.49-2.64,12.88-4.95,26.04-6.92,39.5l2.87-2c.75,0,1.13.32,1.13.96v.22c0,.09-.09.22-.26.39l-4.09,2.96c-1.62,11.02-2.44,19.98-2.44,26.88,0,.64-.41.96-1.22.96-1.16,0-1.74-.55-1.74-1.65,0-6.44.58-14.27,1.74-23.49-2.2,1.74-4.99,4.21-8.35,7.4-10.56,9.8-15.83,18.62-15.83,26.45,0,2.55.81,4.62,2.44,6.22,1.62,1.59,4.06,2.39,7.31,2.39,13.57,0,27.14-5.51,40.72-16.53,8.82-7.13,16.8-15.46,23.97-24.97,7.16-9.51,12.88-19.65,17.14-30.41,4.26-10.76,6.39-21.45,6.39-32.06,0-5.68-1.06-10.67-3.18-14.96-2.12-4.29-5.22-7.65-9.31-10.09-4.09-2.44-9.21-3.65-15.36-3.65-8.12,0-15.73,1.09-22.84,3.26-7.11,2.18-13.6,5.04-19.49,8.61-5.89,3.57-11.15,7.53-15.79,11.88-6.67,6.15-11.86,12.17-15.57,18.05s-5.57,11.61-5.57,17.18c0,1.04-.52,1.6-1.57,1.65-1.16,0-1.74-.55-1.74-1.65,0-3.88,2.03-9.21,6.09-15.96,4.06-6.76,9.8-13.64,17.23-20.66,7.25-6.67,15.89-12.38,25.93-17.14,10.09-4.7,21.2-7.05,33.32-7.05,6.26,0,11.79,1.12,16.57,3.35,4.79,2.23,8.54,5.61,11.27,10.13,2.73,4.53,4.09,10.21,4.09,17.05,0,10.61-2.12,21.36-6.35,32.23-4.23,10.88-9.93,21.17-17.09,30.88-7.16,9.72-15.36,18.29-24.58,25.71-14.09,11.25-28.85,16.88-44.28,16.88Z"/>
    <path class="cls-6" d="M842.61,591.5c-4.18,8.82-8.9,17.02-14.18,24.62-5.68,8.12-11.64,14.69-17.88,19.71-6.24,5.02-12.37,7.53-18.4,7.53-7.02,0-10.9-2.73-11.66-8.18-1.04,1.16-2.78,2.71-5.22,4.65-2.44,1.94-4.5,2.91-6.18,2.91-3.13,0-4.79-1.83-4.96-5.48,0-1.86.67-3.96,2-6.31,1.33-2.35,3.06-4.39,5.18-6.13s4.36-2.61,6.74-2.61c1.8,0,3.15.55,4.05,1.65.9,1.1,1.35,2.38,1.35,3.83,0,.52-.29.78-.87.78-.17,0-.39-.06-.65-.17-.26-.12-.39-.35-.39-.7,0-1.57-.99-2.38-2.96-2.44-1.57,0-3.19.78-4.87,2.35-1.68,1.56-3.1,3.36-4.26,5.39-1.16,2.03-1.74,3.71-1.74,5.05,0,1.8.49,2.76,1.48,2.87,1.74,0,4.12-1.39,7.13-4.18,1.86-1.74,3.07-2.96,3.65-3.65l.61-.61c.29-.46.81-.7,1.57-.7,1.22,0,1.83.52,1.83,1.57v.09c0,5.45,2.99,8.18,8.96,8.18,4,0,8.24-1.49,12.7-4.48,4.47-2.99,8.89-6.99,13.27-12.01,4.38-5.02,8.53-10.61,12.44-16.79,3.92-6.18,7.26-12.31,10.05-18.4-11.66,0-22.45,2.61-32.36,7.83-.12.12-.25.19-.39.22-.15.03-.3.04-.48.04-1.16,0-1.74-.55-1.74-1.65,0-.81.52-1.45,1.57-1.91,10.79-4.41,22.24-6.61,34.37-6.61,3.36-7.42,5.94-14.59,7.74-21.49.29-.7.64-1.14,1.04-1.35.41-.2.9-.3,1.48-.3.87,0,1.51.35,1.91,1.04.12.12.22.28.3.48s.13.48.13.83l-.17.78-7.13,20.18c9.8.46,20.62,1.83,32.45,4.09.41.12.61.44.61.96,0,.46-.29.75-.87.87-11.95-2.26-22.91-3.6-32.89-4-18.21,51.97-27.32,86.77-27.32,104.4,0,.87-.43,1.33-1.3,1.39-.87,0-1.3-.49-1.3-1.48,0-9.4,3.04-24.97,9.13-46.72,5.86-20.94,11.34-39.58,16.44-55.94Z"/>
    <path class="cls-6" d="M860.36,643.87c-6.26,0-9.54-2.64-9.83-7.92,0-2.9.81-5.45,2.44-7.65,1.62-2.21,3.97-3.39,7.05-3.57.87,0,1.65.23,2.35.7.7.46,1.04,1.13,1.04,2,0,1.97-.99,3.37-2.96,4.18-1.97.81-3.92,1.22-5.83,1.22-.17.81-.26,1.77-.26,2.87,0,1.91.54,3.45,1.61,4.61s2.54,1.74,4.39,1.74c4.41,0,9.08-.64,14.01-1.91s9.95-2.96,15.05-5.05,10.21-4.32,15.31-6.7c.29,0,.57.06.83.17.26.12.39.38.39.78,0,.12-.04.26-.13.44-.09.17-.19.26-.3.26-.12.12-1.65.87-4.61,2.26-2.96,1.39-6.73,2.99-11.31,4.78-4.58,1.8-9.47,3.38-14.66,4.74-5.19,1.36-10.05,2.04-14.57,2.04ZM855.14,631.08c1.51-.06,2.96-.38,4.35-.96,1.39-.58,2.09-1.48,2.09-2.7,0-.58-.52-.87-1.57-.87-2.15,0-3.77,1.51-4.87,4.52Z"/>
  </g>
  <g>
    <path class="cls-7" d="M320.22,62.94c1.09,0,2,.06,2.72.19.72.12,1.46.29,2.22.5.76.21,1.7.46,2.82.74.21,1.34.38,2.72.5,4.14.12,1.43.2,2.49.24,3.19.03.18-.09.31-.37.4-.28.09-.51.13-.69.13-.25,0-.44-.07-.58-.21-.07-.63-.28-1.37-.63-2.22-.35-.84-.84-1.65-1.45-2.43-.62-.77-1.35-1.42-2.22-1.93-.86-.51-1.84-.77-2.93-.77-1.41,0-2.52.3-3.33.9-.81.6-1.39,1.34-1.74,2.22-.35.88-.53,1.74-.53,2.59,0,1.37.36,2.52,1.08,3.43.72.91,1.64,1.72,2.75,2.43,1.11.71,2.23,1.43,3.35,2.16.84.53,1.78,1.11,2.8,1.74,1.02.63,2.01,1.34,2.96,2.11.95.78,1.72,1.66,2.32,2.67.6,1,.9,2.14.9,3.41,0,1.87-.52,3.51-1.56,4.94-1.04,1.43-2.38,2.53-4.01,3.33-1.64.79-3.37,1.19-5.2,1.19-1.72,0-3.39-.19-4.99-.58-1.6-.39-3.04-.71-4.3-.95-.21-1.02-.4-2.11-.55-3.27-.16-1.16-.28-2.18-.37-3.06-.09-.88-.13-1.43-.13-1.64.18-.18.38-.33.61-.45.23-.12.47-.19.71-.19.32,0,.51.16.58.48.11.49.33,1.17.66,2.03.33.86.83,1.75,1.48,2.67.65.92,1.5,1.68,2.53,2.3,1.04.62,2.33.92,3.88.92,1.65,0,3.1-.55,4.33-1.66,1.23-1.11,1.85-2.67,1.85-4.67,0-1.44-.33-2.57-.98-3.38-.65-.81-1.5-1.51-2.53-2.11-1.04-.6-2.16-1.23-3.35-1.9-1.3-.77-2.65-1.63-4.04-2.56-1.39-.93-2.56-2.03-3.51-3.3s-1.43-2.76-1.43-4.49c0-1.83.48-3.42,1.45-4.78.97-1.35,2.23-2.4,3.77-3.14,1.55-.74,3.19-1.11,4.91-1.11Z"/>
    <path class="cls-7" d="M351.63,63.37c2.43,0,5.1-.05,8.02-.16,2.92-.11,5.77-.16,8.55-.16.18,1.3.4,2.5.69,3.59.28,1.09.55,2.22.79,3.38-.18.18-.48.27-.9.27-.46,0-.7-.12-.74-.37-.56-2.08-1.35-3.39-2.38-3.96-1.02-.56-2.22-.84-3.59-.84h-4.43c-.21,0-.6,0-1.16.03-.56.02-1.09.06-1.58.13-.49.07-.77.19-.84.37-.11.35-.17.81-.19,1.37-.02.56-.03,1.14-.03,1.74v10.19c0,.14.23.23.69.27.46.04.97.05,1.53.05h2.69c1.23,0,2.19-.04,2.88-.11.69-.07,1.19-.23,1.5-.48.32-.25.56-.62.74-1.11.18-.49.37-1.16.58-2.01.03-.24.28-.37.74-.37.42,0,.72.09.9.26v9.71c-.14.14-.42.21-.84.21s-.69-.12-.79-.37c-.25-.98-.45-1.7-.61-2.14-.16-.44-.3-.74-.42-.9-.12-.16-.27-.29-.45-.4-.18-.14-.58-.24-1.21-.29s-1.33-.09-2.09-.11c-.76-.02-1.47-.03-2.14-.03-.46,0-.98,0-1.56.03s-1.08.05-1.5.11c-.42.05-.63.17-.63.34v10.14c0,.49,0,1.13.03,1.9.02.77.1,1.21.24,1.32.35.25.78.4,1.29.45.51.05,1.31.08,2.4.08h2.48c1.23,0,2.45-.12,3.64-.37,1.2-.25,2.15-.6,2.85-1.06.81-.49,1.44-1.21,1.9-2.14.46-.93.9-1.94,1.32-3.04.07-.21.32-.32.74-.32.63,0,1.06.11,1.27.32-.49,1.41-1.03,2.9-1.61,4.49-.58,1.58-.96,2.94-1.13,4.06-2.78,0-5.54-.04-8.29-.11-2.75-.07-5.84-.11-9.29-.11-1.2,0-2.27.03-3.22.08s-1.94.08-2.96.08c-.14-.14-.2-.39-.18-.74.02-.35.08-.6.18-.74.21,0,.6-.03,1.16-.08.56-.05,1.1-.15,1.61-.29.51-.14.78-.3.82-.47.14-.42.22-.97.24-1.64.02-.67.03-1.39.03-2.17v-22.01c0-.77,0-1.5-.03-2.19-.02-.69-.1-1.24-.24-1.66-.04-.21-.31-.37-.82-.47-.51-.11-1.05-.19-1.61-.24-.56-.05-.95-.08-1.16-.08-.11-.14-.17-.39-.18-.74-.02-.35.04-.6.18-.74,1.06.04,2.09.08,3.11.13,1.02.05,2.02.08,3.01.08Z"/>
    <path class="cls-7" d="M410.71,72.55c0,2.08-.48,3.9-1.43,5.46-.95,1.57-2.28,2.78-3.99,3.64-1.71.86-3.69,1.29-5.94,1.29-.28,0-.65-.04-1.11-.11-.46-.07-.83-.18-1.11-.32-.07-.07-.21-.2-.42-.39-.21-.19-.32-.45-.32-.77,0-.21.09-.3.26-.26.28.07.58.15.9.24.32.09.67.13,1.06.13,2.08,0,3.82-.7,5.23-2.09,1.41-1.39,2.11-3.37,2.11-5.94s-.7-4.63-2.11-6.18c-1.41-1.55-3.54-2.32-6.39-2.32-.32,0-.8.02-1.45.05-.65.04-1.03.18-1.13.42-.14.32-.22.85-.24,1.61-.02.76-.03,1.52-.03,2.3v21.96c0,.78,0,1.5.03,2.17.02.67.1,1.21.24,1.64.07.18.35.33.84.47.49.14,1.01.24,1.56.29.55.05.92.08,1.14.08.11.14.17.39.18.74.02.35-.04.6-.18.74-1.06-.07-2.07-.13-3.04-.19-.97-.05-1.96-.08-2.98-.08s-1.98.03-2.98.08-2.03.12-3.09.19c-.14-.14-.2-.39-.18-.74.02-.35.08-.6.18-.74.21,0,.59-.03,1.14-.08.54-.05,1.07-.15,1.58-.29.51-.14.78-.3.82-.47.14-.42.22-.97.24-1.64.02-.67.03-1.39.03-2.17v-22.01c0-.77,0-1.5-.03-2.19-.02-.69-.1-1.24-.24-1.66-.04-.21-.31-.37-.82-.47-.51-.11-1.04-.19-1.58-.24-.55-.05-.92-.08-1.14-.08-.11-.14-.17-.39-.18-.74-.02-.35.04-.6.18-.74,1.06.04,2.09.08,3.09.13s2,.08,2.98.08,2.12-.02,3.3-.05,2.53-.05,4.04-.05c1.83,0,3.58.36,5.25,1.08,1.67.72,3.04,1.77,4.12,3.14,1.07,1.37,1.61,3.06,1.61,5.07Z"/>
    <path class="cls-7" d="M448.98,63.16c.42,0,.97-.09,1.64-.26.67-.18,1.16-.33,1.48-.47.28-.14.48-.21.58-.21s.23.04.37.11c.18,1.58.38,3.12.61,4.59.23,1.48.48,2.9.77,4.28-.07.07-.19.16-.37.26-.18.11-.39.14-.63.11-.39,0-.63-.09-.74-.26-.35-1.79-.93-3.29-1.74-4.49-.81-1.2-1.87-1.79-3.17-1.79h-6.55v26.29c0,.78,0,1.5.03,2.17.02.67.1,1.21.24,1.64.07.18.35.33.84.47.49.14,1.01.24,1.56.29.54.05.92.08,1.13.08.11.14.17.39.19.74.02.35-.04.6-.19.74-1.06-.07-2.07-.13-3.04-.19-.97-.05-1.96-.08-2.98-.08s-1.99.03-3.01.08c-1.02.05-2.06.12-3.11.19-.14-.14-.2-.39-.19-.74.02-.35.08-.6.19-.74.21,0,.6-.03,1.16-.08s1.1-.15,1.61-.29c.51-.14.78-.3.82-.47.14-.42.22-.97.24-1.64.02-.67.03-1.39.03-2.17v-26.29h-6.65c-1.3,0-2.36.6-3.17,1.79-.81,1.2-1.41,2.69-1.79,4.49-.11.18-.35.26-.74.26-.25.04-.45,0-.61-.11-.16-.11-.27-.19-.34-.26.28-1.37.53-2.8.74-4.28.21-1.48.4-3.01.58-4.59.18-.07.39-.08.63-.03.25.05.44.11.58.18.32.14.77.29,1.35.45.58.16,1.08.24,1.5.24h20.17Z"/>
    <path class="cls-7" d="M474.06,63.37c2.43,0,5.1-.05,8.02-.16,2.92-.11,5.77-.16,8.55-.16.18,1.3.4,2.5.69,3.59.28,1.09.54,2.22.79,3.38-.18.18-.47.27-.9.27-.46,0-.71-.12-.74-.37-.56-2.08-1.36-3.39-2.38-3.96-1.02-.56-2.22-.84-3.59-.84h-4.43c-.21,0-.6,0-1.16.03-.56.02-1.09.06-1.58.13-.49.07-.77.19-.84.37-.11.35-.17.81-.19,1.37-.02.56-.03,1.14-.03,1.74v10.19c0,.14.23.23.69.27.46.04.97.05,1.53.05h2.69c1.23,0,2.19-.04,2.88-.11.69-.07,1.19-.23,1.5-.48.32-.25.56-.62.74-1.11.18-.49.37-1.16.58-2.01.04-.24.28-.37.74-.37.42,0,.72.09.9.26v9.71c-.14.14-.42.21-.84.21s-.69-.12-.79-.37c-.25-.98-.45-1.7-.61-2.14-.16-.44-.3-.74-.42-.9s-.27-.29-.45-.4c-.18-.14-.58-.24-1.21-.29s-1.33-.09-2.09-.11c-.76-.02-1.47-.03-2.14-.03-.46,0-.98,0-1.56.03s-1.08.05-1.5.11c-.42.05-.63.17-.63.34v10.14c0,.49,0,1.13.03,1.9.02.77.1,1.21.24,1.32.35.25.78.4,1.29.45.51.05,1.31.08,2.4.08h2.48c1.23,0,2.45-.12,3.64-.37,1.2-.25,2.15-.6,2.85-1.06.81-.49,1.44-1.21,1.9-2.14.46-.93.9-1.94,1.32-3.04.07-.21.32-.32.74-.32.63,0,1.05.11,1.27.32-.49,1.41-1.03,2.9-1.61,4.49-.58,1.58-.96,2.94-1.13,4.06-2.78,0-5.54-.04-8.29-.11-2.75-.07-5.84-.11-9.29-.11-1.2,0-2.27.03-3.22.08s-1.94.08-2.96.08c-.14-.14-.2-.39-.18-.74.02-.35.08-.6.18-.74.21,0,.6-.03,1.16-.08.56-.05,1.1-.15,1.61-.29.51-.14.78-.3.82-.47.14-.42.22-.97.24-1.64.02-.67.03-1.39.03-2.17v-22.01c0-.77,0-1.5-.03-2.19-.02-.69-.1-1.24-.24-1.66-.04-.21-.31-.37-.82-.47-.51-.11-1.05-.19-1.61-.24-.56-.05-.95-.08-1.16-.08-.11-.14-.17-.39-.18-.74-.02-.35.04-.6.18-.74,1.06.04,2.09.08,3.11.13,1.02.05,2.02.08,3.01.08Z"/>
    <path class="cls-7" d="M514.81,63.37c.88,0,1.65-.03,2.32-.08.67-.05,1.28-.1,1.85-.13.21.67.61,1.71,1.19,3.12.58,1.41,1.27,3.07,2.06,4.99s1.64,3.95,2.56,6.1c.91,2.15,1.81,4.29,2.69,6.41.88,2.13,1.69,4.11,2.43,5.94.03.07.11.11.21.11s.18-.07.21-.21c1.02-2.6,1.94-4.95,2.75-7.05s1.63-4.19,2.46-6.28c.83-2.09,1.73-4.41,2.72-6.94.32-.81.65-1.69,1-2.64.35-.95.77-2.13,1.27-3.54,1.65.11,3.01.16,4.06.16.92,0,1.94-.02,3.09-.05,1.14-.04,2.03-.07,2.67-.11.03.07.09.56.16,1.48-.25,0-.64.04-1.19.11-.55.07-1.06.18-1.56.32-.49.14-.79.3-.9.47-.11.25-.18.56-.21.95-.04.39-.05.74-.05,1.06.04.88.07,2.22.11,4.01s.08,3.81.13,6.04c.05,2.24.11,4.44.16,6.62.05,2.18.1,4.12.13,5.81.03.98.09,1.92.16,2.8.07.88.23,1.62.48,2.22.11.25.42.43.95.55.53.12,1.06.21,1.61.26.54.05.89.08,1.03.08.14.25.2.54.18.87-.02.33-.04.54-.08.61-1.02-.07-2.02-.13-2.98-.19s-2.01-.08-3.14-.08c-1.2,0-2.24.03-3.12.08s-1.92.12-3.11.19c-.04-.07-.07-.28-.11-.63-.04-.35,0-.63.11-.84.21,0,.54-.03,1-.08.46-.05.92-.12,1.37-.21.46-.09.79-.18,1-.29.18-.11.3-.4.37-.9.07-.49.11-.91.11-1.27,0-.39-.02-.89-.05-1.5-.04-.62-.05-1.12-.05-1.5-.07-2.5-.14-4.9-.21-7.21-.07-2.3-.14-4.66-.21-7.07-.07-2.41-.16-5.01-.26-7.79,0-.11-.04-.3-.11-.58s-.19-.42-.37-.42c-.07,0-.16.12-.26.37-1.06,2.64-2.03,5.09-2.93,7.34s-1.77,4.43-2.61,6.52c-.84,2.1-1.7,4.22-2.56,6.39s-1.79,4.5-2.77,6.99c-.07.14-.23.42-.47.85-.25.42-.5.82-.77,1.19s-.5.57-.71.61c-.07.04-.19.02-.37-.05-.04-.04-.07-.05-.11-.05l-12.57-30.09c-.04,2.25-.09,4.57-.16,6.97-.07,2.39-.13,4.72-.18,6.97s-.11,4.29-.16,6.1-.1,3.27-.13,4.38c-.04,1.11-.05,1.72-.05,1.82,0,.25.02.52.05.82.03.3.09.55.16.76.11.25.47.44,1.08.58.62.14,1.24.24,1.87.29s1.02.08,1.16.08c.14.14.19.4.16.79-.04.39-.07.62-.11.69-1.02-.07-1.9-.13-2.64-.19-.74-.05-1.67-.08-2.8-.08-1.2,0-2.2.03-3.01.08-.81.05-1.81.12-3.01.19-.04-.07-.07-.28-.11-.63-.04-.35,0-.63.11-.84.21,0,.62-.04,1.24-.11.62-.07,1.22-.18,1.82-.32.6-.14.97-.32,1.11-.53.25-.35.4-.73.48-1.13.07-.4.12-.89.16-1.45.11-3.1.2-6.07.29-8.92s.16-5.41.21-7.68c.05-2.27.1-4.12.13-5.54.03-1.43.05-2.26.05-2.51,0-.39,0-.76-.03-1.11-.02-.35-.08-.67-.18-.95-.07-.21-.36-.4-.87-.55-.51-.16-1.04-.28-1.58-.37-.55-.09-.92-.13-1.14-.13-.04,0-.05-.24-.05-.71s.02-.73.05-.77c.81.04,1.46.07,1.95.11.49.04.98.06,1.48.08s1.13.03,1.9.03Z"/>
    <path class="cls-7" d="M579.43,63.26c1.16,0,2.36.13,3.59.39,1.23.26,2.36.69,3.38,1.27,1.02.58,1.85,1.37,2.48,2.35.63.99.95,2.22.95,3.7,0,1.3-.31,2.48-.92,3.54-.62,1.05-1.34,1.92-2.16,2.59-.83.67-1.54,1.13-2.14,1.37-.11.07-.11.14,0,.21.63.04,1.37.25,2.22.63s1.68.94,2.51,1.66c.83.72,1.5,1.59,2.03,2.61.53,1.02.79,2.16.79,3.43,0,1.48-.26,2.85-.77,4.12-.51,1.27-1.4,2.43-2.67,3.48-1.23,1.02-2.85,1.73-4.86,2.14s-4,.62-5.97.66h-11.88c-.14-.14-.2-.39-.19-.74.02-.35.08-.6.19-.74.21,0,.6-.03,1.16-.08.56-.05,1.1-.15,1.61-.29.51-.14.78-.3.82-.47.14-.42.22-.97.24-1.64.02-.67.03-1.39.03-2.17v-22.01c0-.77,0-1.5-.03-2.19-.02-.69-.1-1.24-.24-1.66-.04-.21-.31-.37-.82-.47-.51-.11-1.05-.19-1.61-.24-.56-.05-.95-.08-1.16-.08-.11-.14-.17-.39-.19-.74s.04-.6.19-.74c1.06.04,2.09.08,3.11.13,1.02.05,2.02.08,3.01.08s2.11-.02,3.27-.05c1.16-.04,2.5-.05,4.01-.05ZM574.36,78.2h4.28c1.55,0,2.8-.3,3.75-.9.95-.6,1.64-1.36,2.08-2.29.44-.93.66-1.89.66-2.88,0-2.29-.73-4.06-2.19-5.31-1.46-1.25-3.39-1.87-5.78-1.87-.32,0-.8.02-1.45.05-.65.04-1.03.18-1.14.42-.11.28-.17.72-.18,1.32-.02.6-.03,1.23-.03,1.9v9.55ZM574.36,80.16v11.19c0,.25,0,.63.03,1.14.02.51.06.99.13,1.45s.16.76.26.9c.39.42.92.69,1.61.79.69.11,1.5.16,2.46.16,1.3,0,2.58-.19,3.83-.58s2.3-1.14,3.14-2.24c.84-1.11,1.27-2.7,1.27-4.78,0-1.3-.25-2.56-.74-3.78-.49-1.21-1.43-2.22-2.83-3.04s-3.4-1.21-6.04-1.21h-3.12Z"/>
    <path class="cls-7" d="M613.43,63.37c2.43,0,5.1-.05,8.02-.16,2.92-.11,5.77-.16,8.55-.16.18,1.3.4,2.5.69,3.59.28,1.09.54,2.22.79,3.38-.18.18-.48.27-.9.27-.46,0-.7-.12-.74-.37-.56-2.08-1.36-3.39-2.38-3.96-1.02-.56-2.22-.84-3.59-.84h-4.43c-.21,0-.6,0-1.16.03-.56.02-1.09.06-1.58.13s-.77.19-.84.37c-.11.35-.17.81-.18,1.37-.02.56-.03,1.14-.03,1.74v10.19c0,.14.23.23.69.27.46.04.97.05,1.53.05h2.69c1.23,0,2.19-.04,2.88-.11s1.19-.23,1.5-.48c.32-.25.56-.62.74-1.11.18-.49.37-1.16.58-2.01.04-.24.28-.37.74-.37.42,0,.72.09.9.26v9.71c-.14.14-.42.21-.84.21s-.69-.12-.79-.37c-.25-.98-.45-1.7-.61-2.14-.16-.44-.3-.74-.42-.9-.12-.16-.27-.29-.45-.4-.18-.14-.58-.24-1.21-.29s-1.33-.09-2.08-.11c-.76-.02-1.47-.03-2.14-.03-.46,0-.98,0-1.56.03-.58.02-1.08.05-1.5.11-.42.05-.63.17-.63.34v10.14c0,.49,0,1.13.03,1.9.02.77.1,1.21.24,1.32.35.25.78.4,1.29.45.51.05,1.31.08,2.4.08h2.48c1.23,0,2.45-.12,3.64-.37s2.15-.6,2.85-1.06c.81-.49,1.44-1.21,1.9-2.14.46-.93.9-1.94,1.32-3.04.07-.21.32-.32.74-.32.63,0,1.06.11,1.27.32-.49,1.41-1.03,2.9-1.61,4.49-.58,1.58-.96,2.94-1.14,4.06-2.78,0-5.54-.04-8.29-.11-2.75-.07-5.84-.11-9.29-.11-1.2,0-2.27.03-3.22.08s-1.94.08-2.96.08c-.14-.14-.2-.39-.19-.74.02-.35.08-.6.19-.74.21,0,.6-.03,1.16-.08.56-.05,1.1-.15,1.61-.29.51-.14.78-.3.82-.47.14-.42.22-.97.24-1.64.02-.67.03-1.39.03-2.17v-22.01c0-.77,0-1.5-.03-2.19-.02-.69-.1-1.24-.24-1.66-.04-.21-.31-.37-.82-.47-.51-.11-1.05-.19-1.61-.24-.56-.05-.95-.08-1.16-.08-.11-.14-.17-.39-.19-.74s.04-.6.19-.74c1.06.04,2.09.08,3.11.13,1.02.05,2.02.08,3.01.08Z"/>
    <path class="cls-7" d="M661.52,63.26c1.16,0,2.36.19,3.59.58,1.23.39,2.37.95,3.41,1.69,1.04.74,1.87,1.66,2.51,2.77.63,1.11.95,2.4.95,3.88,0,1.23-.34,2.43-1.03,3.59-.69,1.16-1.57,2.18-2.64,3.06-1.07.88-2.19,1.51-3.35,1.9.91,1.51,1.79,2.9,2.64,4.17.84,1.27,1.72,2.53,2.64,3.77.91,1.25,1.93,2.63,3.06,4.14.74.99,1.54,1.72,2.4,2.22.86.49,2,.79,3.41.9.14.14.18.4.11.79-.07.39-.12.62-.16.69-1.73,0-3.16-.06-4.3-.19-1.14-.12-1.98-.27-2.51-.45-.35-.14-.84-.36-1.48-.66s-1.25-.84-1.85-1.61c-.21-.28-.6-.83-1.16-1.64-.56-.81-1.23-1.79-2.01-2.96-.78-1.16-1.6-2.4-2.48-3.72-.88-1.32-1.72-2.61-2.53-3.88-.28-.42-.81-.63-1.58-.63h-2.69v10.24c0,.67,0,1.28.03,1.82.02.55.08,1,.18,1.35.07.18.35.33.84.47s1.02.24,1.58.29c.56.05.95.08,1.16.08.11.14.17.39.19.74.02.35-.04.6-.19.74-1.06-.07-2.07-.13-3.04-.19-.97-.05-1.96-.08-2.98-.08s-1.99.03-3.01.08c-1.02.05-2.06.12-3.11.19-.14-.14-.2-.39-.19-.74.02-.35.08-.6.19-.74.21,0,.6-.03,1.16-.08.56-.05,1.1-.15,1.61-.29.51-.14.78-.3.82-.47.14-.42.22-.97.24-1.64.02-.67.03-1.39.03-2.17l-.05-22.01c0-.77,0-1.5-.03-2.19-.02-.69-.1-1.24-.24-1.66-.04-.21-.31-.37-.82-.47-.51-.11-1.04-.19-1.58-.24-.55-.05-.92-.08-1.13-.08-.11-.14-.17-.39-.19-.74s.04-.6.19-.74c1.06.04,2.08.08,3.09.13s2,.08,2.98.08,2.12-.02,3.3-.05c1.18-.04,2.53-.05,4.04-.05ZM667.17,72.66c0-2.25-.61-4.1-1.82-5.54s-3.25-2.16-6.1-2.16c-.32,0-.8.02-1.45.05-.65.04-1.03.18-1.14.42-.14.32-.22.85-.24,1.61-.02.76-.03,1.52-.03,2.3l.05,10.77h2.75c1.34,0,2.61-.31,3.83-.92,1.21-.62,2.21-1.48,2.98-2.59.77-1.11,1.16-2.42,1.16-3.93Z"/>
  </g>
  <g>
    <g class="cls-8">
      <rect class="cls-4" x="39.02" y="207.32" width="126.71" height="130.82" rx="4.86" ry="4.86"/>
    </g>
    <g class="cls-8">
      <g>
        <path class="cls-7" d="M94.1,154.93c.37,0,.86-.08,1.48-.23.61-.16,1.07-.29,1.37-.42.27-.12.45-.19.54-.19s.19.03.31.09c-.09,1.39-.15,2.73-.18,4.03-.03,1.3-.03,2.55.01,3.75-.07.06-.19.14-.37.23-.17.09-.36.12-.57.09-.34,0-.54-.08-.61-.23-.03-1.57-.31-2.88-.83-3.93-.53-1.05-1.36-1.57-2.5-1.57h-5.74l-4.06,23.05c-.12.68-.22,1.31-.31,1.9-.09.59-.1,1.06-.04,1.44.03.15.26.29.67.42.41.12.85.21,1.32.25.47.05.8.07.98.07.07.12.09.34.05.65-.04.31-.13.52-.28.65-.91-.06-1.79-.12-2.63-.16-.84-.05-1.71-.07-2.6-.07s-1.75.02-2.65.07c-.9.05-1.82.1-2.76.16-.1-.12-.12-.34-.05-.65.07-.31.16-.53.28-.65.18,0,.53-.02,1.03-.07.5-.05.99-.13,1.46-.25.47-.12.73-.26.79-.42.19-.37.34-.85.46-1.44.12-.58.24-1.22.36-1.9l4.06-23.05h-5.83c-1.14,0-2.16.53-3.05,1.57-.9,1.05-1.65,2.36-2.27,3.93-.12.16-.35.23-.69.23-.22.03-.39,0-.52-.09-.12-.09-.21-.17-.26-.23.46-1.2.9-2.45,1.31-3.75.41-1.29.82-2.64,1.22-4.03.16-.06.35-.07.56-.02.21.05.37.1.48.16.26.12.63.25,1.11.39.49.14.91.21,1.28.21h17.68Z"/>
        <path class="cls-7" d="M109.43,170.39s.02-.09.03-.18c.05-.31.11-.69.15-1.13.05-.45.02-.83-.08-1.13-.14-.43-.5-.69-1.07-.79-.57-.09-1.01-.14-1.32-.14-.05-.06-.06-.24-.02-.53.04-.29.11-.5.23-.62,1.18-.06,2.33-.17,3.44-.32,1.11-.16,2.08-.36,2.93-.6.12,0,.2.16.24.46.04.31.05.52.02.65-.13.19-.26.56-.4,1.11-.15.56-.27,1.16-.39,1.8l-1.67,9.49c-.04.25-.11.73-.21,1.46-.1.73-.14,1.4-.12,2.01.03.37.34.59.93.65.59.06,1.04.11,1.34.14h.28c.06.03.08.11.07.23s-.01.22-.03.28c0,.03-.06.15-.16.37s-.21.32-.33.32c-.78.03-1.64.16-2.59.37-.95.22-1.76.43-2.45.63-.68.2-1.04.3-1.07.3-.12,0-.2-.09-.23-.25-.03-.17-.03-.33,0-.49l.37-2.08c.02-.12,0-.2-.05-.23-.48.43-1.11.89-1.91,1.37s-1.63.87-2.52,1.18c-.89.31-1.72.46-2.49.46-1.2,0-2.13-.29-2.77-.86-.64-.57-1.08-1.31-1.32-2.22-.24-.91-.34-1.89-.29-2.94.05-1.05.15-2.05.32-3.01l1.01-5.74c.05-.31.11-.71.17-1.2.06-.49.02-.91-.1-1.25-.14-.43-.5-.69-1.06-.79-.57-.09-1.01-.14-1.32-.14-.05-.06-.06-.24-.02-.53.04-.29.11-.5.23-.62,1.18-.06,2.33-.17,3.44-.32,1.11-.16,2.08-.36,2.93-.6.12,0,.22.12.28.37.06.25.09.43.06.56-.13.19-.27.59-.44,1.2-.17.62-.31,1.25-.43,1.9l-1.18,6.67c-.42,2.41-.37,4.17.15,5.3.53,1.13,1.58,1.69,3.15,1.69.68,0,1.35-.13,2.01-.39.66-.26,1.24-.59,1.73-1,.49-.4.76-.77.82-1.11l1.71-9.72Z"/>
        <path class="cls-7" d="M121.31,173.63c-.37,1.91-.33,3.52.12,4.81.45,1.3,1.19,2.26,2.22,2.89,1.03.63,2.21.95,3.54.95.83,0,1.61-.15,2.35-.44.73-.29,1.36-.63,1.89-1.02.53-.39.91-.69,1.13-.9.03,0,.09.05.18.16.09.11.12.25.08.44-.04.25-.19.52-.42.83-.35.43-.88.95-1.57,1.55-.69.6-1.53,1.13-2.5,1.6-.98.46-2.05.69-3.22.69-1.76,0-3.24-.42-4.45-1.25-1.21-.83-2.08-1.96-2.6-3.38-.52-1.42-.63-3.01-.32-4.77.27-1.51.79-2.92,1.56-4.24.77-1.31,1.68-2.45,2.73-3.42,1.05-.97,2.15-1.74,3.3-2.29,1.15-.56,2.21-.83,3.2-.83,1.36,0,2.44.23,3.23.69.8.46,1.39,1.03,1.78,1.71.39.68.62,1.36.71,2.04.08.68.08,1.25,0,1.71-.11.65-.28,1.16-.5,1.53s-.55.57-.99.6c-.28.03-.83.05-1.65.07-.82.02-1.76.04-2.81.07-1.05.03-2.09.06-3.12.09-1.02.03-1.89.05-2.6.07-.71.02-1.13.02-1.25.02ZM121.83,171.96h7.36c.28,0,.53-.08.76-.23.23-.15.39-.43.49-.83.1-.37.08-.89-.05-1.57s-.41-1.3-.85-1.85c-.44-.56-1.13-.83-2.05-.83s-1.79.27-2.5.81c-.71.54-1.31,1.16-1.78,1.85-.48.69-.83,1.31-1.07,1.85-.23.54-.34.81-.3.81Z"/>
      </g>
    </g>
    <g class="cls-1">
      <rect class="cls-3" x="231.04" y="207.32" width="126.71" height="130.82" rx="4.86" ry="4.86"/>
    </g>
    <g class="cls-1">
      <g>
        <path class="cls-7" d="M259.88,155.11c.99,0,1.82-.02,2.51-.07.69-.05,1.48-.08,2.38-.12.04.12.02.36-.06.72-.08.36-.17.55-.26.58-.12,0-.41.04-.85.12-.45.08-.89.22-1.32.42-.44.2-.69.52-.77.95-.02.12-.02.45.01.97.03.52.08,1.19.16,1.99.12,1.24.31,2.82.55,4.74.25,1.93.51,4,.81,6.2.29,2.21.55,4.38.8,6.5.83-1.76,1.76-3.66,2.76-5.69,1.01-2.04,2.01-4.07,3.02-6.11,1.01-2.04,1.94-3.92,2.8-5.65.86-1.73,1.56-3.15,2.09-4.26.23-.43.54-.79.93-1.07.39-.28.71-.42.95-.42.12,0,.25.23.39.69.03.19.12.79.26,1.81.14,1.02.32,2.32.54,3.91.21,1.59.46,3.33.74,5.23.28,1.9.57,3.83.87,5.81.3,1.97.59,3.86.86,5.65.8-1.73,1.52-3.29,2.17-4.67.65-1.39,1.26-2.71,1.83-3.96.57-1.25,1.17-2.54,1.77-3.86.6-1.33,1.25-2.79,1.93-4.4.25-.52.47-1.08.66-1.67.2-.58.33-1.08.4-1.48.09-.49-.06-.86-.45-1.11-.39-.25-.82-.42-1.3-.51-.48-.09-.81-.14-.99-.14-.11-.06-.14-.26-.08-.6.06-.34.16-.57.31-.69.83.03,1.64.07,2.43.12.79.05,1.61.07,2.44.07.71,0,1.26,0,1.65-.02.39-.01.78-.04,1.17-.07.39-.03.88-.06,1.47-.09.04.12.01.37-.08.74-.1.37-.18.56-.24.56-.19,0-.61.09-1.28.28-.67.18-1.26.48-1.8.88-.36.28-.71.69-1.05,1.23-.34.54-.73,1.27-1.17,2.2-1.33,2.84-2.55,5.46-3.66,7.87-1.1,2.41-2.19,4.78-3.27,7.13-1.08,2.35-2.26,4.88-3.54,7.59-.19.4-.5.76-.91,1.07-.41.31-.77.46-1.08.46-.09,0-.17-.1-.23-.3-.06-.2-.09-.35-.11-.44-.18-1.08-.38-2.38-.61-3.89-.23-1.51-.47-3.11-.73-4.79-.26-1.68-.51-3.32-.75-4.93-.24-1.6-.46-3.06-.66-4.38-.2-1.31-.42-2.75-.67-4.33-1.01,2.07-1.95,3.99-2.82,5.76-.87,1.78-1.72,3.49-2.55,5.14-.83,1.65-1.67,3.33-2.51,5.04-.84,1.71-1.75,3.57-2.72,5.58-.19.4-.5.76-.93,1.07-.42.31-.79.46-1.1.46-.09,0-.16-.1-.2-.3-.04-.2-.07-.35-.08-.44-.37-2.81-.72-5.42-1.05-7.84-.33-2.42-.66-4.88-.99-7.38-.33-2.5-.7-5.23-1.1-8.19-.12-.89-.22-1.63-.31-2.2-.08-.57-.31-1.06-.67-1.46-.26-.31-.66-.53-1.2-.67-.55-.14-.96-.21-1.24-.21-.03,0,0-.21.06-.63.07-.42.13-.64.16-.67,1.04.03,1.96.07,2.73.12.78.05,1.69.07,2.74.07Z"/>
        <path class="cls-7" d="M296.93,173.63c-.37,1.91-.33,3.52.12,4.81.45,1.3,1.19,2.26,2.22,2.89,1.03.63,2.21.95,3.54.95.83,0,1.61-.15,2.35-.44.73-.29,1.36-.63,1.89-1.02.53-.39.91-.69,1.13-.9.03,0,.09.05.18.16.09.11.12.25.08.44-.04.25-.19.52-.42.83-.35.43-.88.95-1.57,1.55-.69.6-1.53,1.13-2.5,1.6-.98.46-2.05.69-3.22.69-1.76,0-3.24-.42-4.45-1.25-1.21-.83-2.08-1.96-2.6-3.38-.52-1.42-.63-3.01-.32-4.77.27-1.51.79-2.92,1.56-4.24.77-1.31,1.68-2.45,2.73-3.42,1.05-.97,2.15-1.74,3.3-2.29,1.15-.56,2.21-.83,3.2-.83,1.36,0,2.44.23,3.23.69.8.46,1.39,1.03,1.78,1.71.39.68.62,1.36.71,2.04.08.68.08,1.25,0,1.71-.11.65-.28,1.16-.5,1.53s-.55.57-.99.6c-.28.03-.83.05-1.65.07-.82.02-1.76.04-2.81.07-1.05.03-2.09.06-3.12.09-1.02.03-1.89.05-2.6.07-.71.02-1.13.02-1.25.02ZM297.46,171.96h7.36c.28,0,.53-.08.76-.23.23-.15.39-.43.49-.83.1-.37.08-.89-.05-1.57s-.41-1.3-.85-1.85c-.44-.56-1.13-.83-2.05-.83s-1.79.27-2.5.81c-.71.54-1.31,1.16-1.78,1.85-.48.69-.83,1.31-1.07,1.85-.23.54-.34.81-.3.81Z"/>
        <path class="cls-7" d="M325.39,165.02c.49,0,1.07.05,1.73.16.66.11,1.09.21,1.29.3.15,0,.29-.31.39-.92l.87-4.95c.06-.34.12-.75.19-1.23s.07-.86,0-1.13c-.06-.34-.36-.56-.9-.65-.54-.09-1.12-.14-1.73-.14-.03,0-.02-.19.03-.58.05-.39.13-.59.23-.62,1.16-.12,2.32-.35,3.47-.67,1.15-.32,2.24-.7,3.28-1.13.12,0,.22.09.3.25.08.17.1.33.08.49-.58,1.36-.98,2.67-1.2,3.93l-3.41,19.35c-.15.86-.28,1.74-.39,2.62-.11.88-.13,1.49-.07,1.83.09.34.42.55.98.62s.99.13,1.29.16h.23c.06.03.08.12.07.25,0,.14-.02.24-.03.3,0,.03-.05.15-.13.35-.08.2-.18.3-.31.3-.78.03-1.64.16-2.59.37-.95.22-1.76.43-2.45.63-.68.2-1.04.3-1.07.3-.12,0-.2-.11-.22-.32-.02-.22-.02-.4,0-.55l.28-1.57c.05-.28.02-.37-.09-.28-.26.25-.77.59-1.54,1.02-.77.43-1.6.83-2.5,1.18-.9.35-1.71.53-2.46.53-1.36,0-2.57-.42-3.64-1.27-1.07-.85-1.85-2.01-2.35-3.47-.5-1.47-.59-3.11-.26-4.93.26-1.48.87-2.86,1.82-4.14.95-1.28,2.07-2.39,3.37-3.33,1.29-.94,2.6-1.68,3.93-2.22,1.33-.54,2.5-.81,3.52-.81ZM323.57,166.92c-1.14,0-2.19.36-3.13,1.09-.95.73-1.74,1.66-2.39,2.8-.65,1.14-1.08,2.35-1.31,3.61-.25,1.42-.24,2.73.05,3.93.28,1.2.84,2.18,1.66,2.92.83.74,1.92,1.11,3.27,1.11,1.02,0,1.97-.21,2.84-.62.88-.42,1.35-.81,1.41-1.18l2.02-11.43c.09-.53-.31-1.03-1.19-1.51-.89-.48-1.96-.72-3.23-.72Z"/>
      </g>
    </g>
    <path class="cls-7" d="M560.44,264.93c-4.26,10.54-10.29,20.35-17.44,29.16-8.36,10.33-18.16,19.43-28.61,27.61-6.76,5.3-13.84,10.19-21.07,14.82h1.89c-14.06-8.99-27.52-19.05-39.31-30.91-9.71-9.77-18.2-20.77-24.38-33.11-3.28-6.54-5.95-13.34-6.48-20.71-.58-8.07.96-16.3,4.67-23.51,3.38-6.57,8.73-11.87,15.28-15.29,6.64-3.47,14.08-4.55,21.43-3.14,6.36,1.22,12.48,3.83,17.27,8.27,3.38,3.13,6.16,7.28,7.8,11.34.35.87.67,1.76.96,2.65.57,1.78,3.04,1.78,3.62,0,1.49-4.63,3.98-9.1,7.49-12.74,5.07-5.26,11.82-8.28,18.95-9.59,8.38-1.54,16.8.32,23.96,4.91s12.3,11.7,14.94,19.83c3.21,9.92,2.87,20.72-.97,30.41-.38.95.41,2.05,1.31,2.31,1.06.3,1.93-.37,2.31-1.31,7.1-17.89,2.69-40.55-12.93-52.53-7.19-5.51-16.42-8.67-25.52-7.82-8.3.78-16.48,3.78-22.78,9.32-4.9,4.31-8.36,10.03-10.35,16.21h3.62c-3.53-10.92-11.6-19.37-22.46-23.21-7.54-2.66-15.75-3.28-23.46-1.02-7.48,2.2-14.34,6.74-19.26,12.78-10.78,13.23-12.27,32.31-5.8,47.75,5.53,13.19,13.63,25.1,23.24,35.67,11.43,12.57,24.86,23.24,38.93,32.7,2,1.35,4.02,2.67,6.05,3.97.54.35,1.35.35,1.89,0,12.64-8.09,24.81-17.04,35.77-27.32,9.21-8.65,17.56-18.3,24.23-29.05,3.45-5.56,6.39-11.39,8.84-17.46.38-.95-.42-2.05-1.31-2.31-1.07-.31-1.93.37-2.31,1.31Z"/>
    <g>
      <path class="cls-7" d="M482.97,154.93c.37,0,.86-.08,1.48-.23.61-.16,1.07-.29,1.37-.42.27-.12.45-.19.54-.19s.19.03.31.09c-.09,1.39-.15,2.73-.18,4.03-.03,1.3-.03,2.55.01,3.75-.07.06-.19.14-.37.23-.17.09-.36.12-.57.09-.34,0-.54-.08-.61-.23-.03-1.57-.31-2.88-.83-3.93-.53-1.05-1.36-1.57-2.5-1.57h-5.74l-4.06,23.05c-.12.68-.22,1.31-.31,1.9-.09.59-.1,1.06-.04,1.44.03.15.26.29.67.42.41.12.85.21,1.32.25.47.05.8.07.98.07.07.12.09.34.05.65-.04.31-.13.52-.28.65-.91-.06-1.79-.12-2.63-.16-.84-.05-1.71-.07-2.6-.07s-1.75.02-2.65.07c-.9.05-1.82.1-2.76.16-.1-.12-.12-.34-.05-.65.07-.31.16-.53.28-.65.18,0,.53-.02,1.03-.07.5-.05.99-.13,1.46-.25.47-.12.73-.26.79-.42.19-.37.34-.85.46-1.44.12-.58.24-1.22.36-1.9l4.06-23.05h-5.83c-1.14,0-2.16.53-3.05,1.57-.9,1.05-1.65,2.36-2.27,3.93-.12.16-.35.23-.69.23-.22.03-.39,0-.52-.09-.12-.09-.21-.17-.26-.23.46-1.2.9-2.45,1.31-3.75.41-1.29.82-2.64,1.22-4.03.16-.06.35-.07.56-.02.21.05.37.1.48.16.26.12.63.25,1.11.39.49.14.91.21,1.28.21h17.68Z"/>
      <path class="cls-7" d="M500.4,165.02c1.63,0,2.81.34,3.52,1.02.71.68,1.09,1.73,1.13,3.15.04,1.42-.13,3.22-.52,5.42l-.88,5c-.12.68-.22,1.31-.31,1.9-.09.59-.1,1.06-.04,1.44.03.15.23.29.6.42s.77.21,1.21.25c.44.05.75.07.94.07.07.12.09.34.05.65-.04.31-.13.52-.28.65-.91-.06-1.72-.12-2.42-.16-.7-.05-1.5-.07-2.4-.07s-1.65.02-2.35.07c-.7.05-1.52.1-2.46.16-.1-.12-.12-.34-.05-.65s.16-.53.28-.65c.19,0,.5-.02.94-.07.44-.05.87-.13,1.29-.25.42-.12.66-.26.72-.42.19-.37.34-.85.46-1.44.12-.58.24-1.22.36-1.9l.8-4.54c.33-1.88.47-3.36.41-4.42s-.37-1.83-.94-2.29c-.57-.46-1.44-.69-2.61-.69-.56,0-1.2.18-1.92.53-.73.35-1.37.73-1.94,1.13-.56.4-.86.68-.89.83l-1.67,9.44c-.12.68-.22,1.31-.31,1.9-.09.59-.1,1.06-.04,1.44.03.15.23.29.6.42.36.12.76.21,1.2.25.44.05.75.07.94.07.07.12.09.34.05.65-.04.31-.13.52-.28.65-.91-.06-1.72-.12-2.42-.16-.7-.05-1.5-.07-2.4-.07s-1.65.02-2.35.07-1.52.1-2.46.16c-.1-.12-.12-.34-.05-.65.07-.31.16-.53.28-.65.19,0,.5-.02.94-.07.44-.05.87-.13,1.29-.25.42-.12.66-.26.72-.42.19-.37.34-.85.46-1.44.12-.58.24-1.22.36-1.9l3.53-20c.05-.31.12-.71.19-1.2.07-.49.07-.88,0-1.16-.06-.34-.36-.56-.88-.65-.52-.09-1.09-.14-1.71-.14-.03,0-.02-.19.03-.58.05-.39.13-.59.23-.62,1.16-.12,2.31-.35,3.45-.67,1.14-.32,2.22-.7,3.25-1.13.12,0,.22.09.3.25.08.17.1.33.08.49-.58,1.36-.98,2.67-1.2,3.93l-1.8,10.23c-.01.06.03.09.12.09.03,0,.08-.03.16-.09.37-.34.95-.77,1.73-1.3.79-.52,1.63-1,2.54-1.41.91-.42,1.71-.62,2.42-.62Z"/>
      <path class="cls-7" d="M524.63,170.39s.02-.09.03-.18c.05-.31.11-.69.15-1.13.05-.45.02-.83-.08-1.13-.14-.43-.5-.69-1.07-.79s-1.01-.14-1.32-.14c-.05-.06-.06-.24-.02-.53.04-.29.11-.5.23-.62,1.18-.06,2.33-.17,3.44-.32,1.11-.16,2.08-.36,2.93-.6.12,0,.2.16.24.46.04.31.04.52.02.65-.12.19-.26.56-.4,1.11-.15.56-.27,1.16-.39,1.8l-1.67,9.49c-.04.25-.11.73-.21,1.46-.1.73-.14,1.4-.12,2.01.03.37.34.59.93.65.59.06,1.04.11,1.34.14h.28c.06.03.08.11.07.23s-.01.22-.03.28c0,.03-.06.15-.16.37s-.21.32-.33.32c-.78.03-1.64.16-2.59.37-.95.22-1.76.43-2.45.63-.68.2-1.04.3-1.07.3-.12,0-.2-.09-.23-.25s-.03-.33,0-.49l.37-2.08c.02-.12,0-.2-.05-.23-.48.43-1.11.89-1.91,1.37-.79.48-1.63.87-2.52,1.18-.89.31-1.72.46-2.49.46-1.2,0-2.13-.29-2.77-.86-.64-.57-1.08-1.31-1.32-2.22-.24-.91-.34-1.89-.29-2.94.04-1.05.15-2.05.32-3.01l1.01-5.74c.05-.31.11-.71.17-1.2.06-.49.02-.91-.1-1.25-.14-.43-.5-.69-1.06-.79-.57-.09-1.01-.14-1.32-.14-.05-.06-.06-.24-.02-.53.04-.29.11-.5.23-.62,1.18-.06,2.33-.17,3.44-.32,1.11-.16,2.08-.36,2.93-.6.12,0,.22.12.28.37.06.25.09.43.06.56-.12.19-.27.59-.44,1.2-.17.62-.31,1.25-.43,1.9l-1.18,6.67c-.42,2.41-.37,4.17.15,5.3.53,1.13,1.58,1.69,3.15,1.69.68,0,1.35-.13,2.01-.39.66-.26,1.24-.59,1.72-1,.49-.4.76-.77.82-1.11l1.71-9.72Z"/>
    </g>
    <g class="cls-1">
      <rect class="cls-3" x="630.79" y="207.32" width="126.71" height="130.82" rx="4.86" ry="4.86"/>
    </g>
    <g class="cls-1">
      <g>
        <path class="cls-7" d="M678.92,155.11c2.13,0,4.48-.05,7.06-.14,2.58-.09,5.08-.14,7.52-.14-.05,1.14-.03,2.19.05,3.15.08.96.14,1.94.17,2.96-.18.16-.46.23-.83.23-.4,0-.6-.11-.59-.32-.17-1.82-.66-2.98-1.47-3.47-.81-.49-1.81-.74-3.02-.74h-3.89c-.19,0-.53,0-1.02.02-.5.02-.97.05-1.41.12-.44.06-.71.17-.8.32-.15.31-.27.71-.38,1.2-.1.49-.2,1-.29,1.53-.04.22-.07.39-.09.51l-1.49,8.42c-.02.12.17.2.56.23.4.03.84.05,1.33.05h2.36c1.08,0,1.93-.03,2.54-.09.61-.06,1.08-.2,1.39-.42.32-.22.59-.54.82-.97.23-.43.5-1.02.82-1.76.07-.21.3-.32.71-.32.37,0,.62.08.75.23l-1.5,8.52c-.14.12-.4.18-.77.18s-.58-.11-.64-.32c-.06-.86-.13-1.49-.2-1.87-.07-.39-.15-.65-.23-.79-.08-.14-.19-.25-.33-.35-.13-.12-.47-.21-1.02-.25-.55-.05-1.15-.08-1.81-.09-.66-.01-1.29-.02-1.87-.02-.4,0-.86,0-1.37.02-.51.02-.96.05-1.34.09-.38.05-.58.15-.61.3l-1.49,8.47c-.02.09-.03.18-.05.28-.02.09-.03.19-.05.28-.1.59-.19,1.12-.26,1.6-.07.48-.08.87-.05,1.18.03.15.29.29.78.42.49.12,1.01.21,1.57.25.56.05.94.07,1.12.07.07.12.09.34.05.65-.04.31-.13.52-.28.65-.92-.06-1.87-.12-2.86-.16-1-.05-1.94-.07-2.83-.07-1.05,0-1.99.04-2.82.12-.83.08-1.69.12-2.59.12-.1-.12-.12-.34-.05-.65.07-.31.16-.53.28-.65.19,0,.53-.02,1.03-.07.5-.05.99-.13,1.46-.25.47-.12.73-.26.79-.42.19-.37.34-.85.46-1.44.12-.58.24-1.22.36-1.9l3.4-19.3c.12-.68.22-1.32.32-1.92.09-.6.11-1.09.05-1.46,0-.19-.21-.32-.64-.42-.43-.09-.89-.16-1.38-.21-.49-.05-.82-.07-1.01-.07-.07-.12-.09-.34-.05-.65.04-.31.13-.52.28-.65.92.03,1.82.07,2.71.12.89.05,1.76.07,2.63.07Z"/>
        <path class="cls-7" d="M706.83,165.07c.59,0,1.12.13,1.6.39.48.26.79.58.94.95.04.12.06.29.05.51s-.03.45-.08.69c-.15.83-.45,1.43-.9,1.8-.45.37-.8.56-1.05.56-.31,0-.58-.11-.82-.32-.24-.21-.47-.4-.69-.56-.19-.15-.39-.28-.6-.39-.21-.11-.54-.16-.97-.16-.65,0-1.29.27-1.92.81-.64.54-1.18,1.13-1.63,1.78-.45.65-.71,1.14-.77,1.48l-1.23,6.99c-.12.68-.22,1.31-.31,1.9-.09.59-.1,1.06-.04,1.44.03.15.32.29.85.42.53.12,1.1.21,1.71.25.61.05,1.01.07,1.19.07.07.12.09.34.05.65-.04.31-.13.52-.28.65-.92-.06-1.85-.12-2.8-.16-.95-.05-1.87-.07-2.76-.07s-1.7.02-2.51.07c-.81.05-1.68.1-2.62.16-.1-.12-.12-.34-.05-.65.07-.31.16-.53.28-.65.18,0,.5-.02.96-.07.45-.05.89-.13,1.32-.25.42-.12.66-.26.72-.42.19-.37.34-.85.46-1.44.12-.58.24-1.22.36-1.9l1.49-8.42c.05-.31.12-.71.19-1.2.07-.49.07-.88,0-1.16-.04-.28-.27-.47-.68-.58s-.83-.17-1.26-.18c-.43-.02-.71-.02-.83-.02-.02-.06-.02-.25,0-.56.02-.31.09-.52.21-.65,1.2-.15,2.38-.39,3.55-.69,1.16-.31,2.24-.71,3.22-1.2.12,0,.22.09.3.28.08.18.1.34.08.46-.02.09-.11.45-.28,1.07-.17.62-.33,1.24-.49,1.87-.16.63-.25,1.04-.29,1.23-.02.09,0,.14.04.14s.09-.01.12-.05c.42-.65.99-1.35,1.69-2.11.7-.76,1.46-1.4,2.26-1.94.8-.54,1.55-.81,2.22-.81Z"/>
        <path class="cls-7" d="M716.07,179.6c-.12.68-.22,1.31-.31,1.9-.09.59-.1,1.06-.04,1.44.03.15.23.29.6.42s.76.21,1.18.25c.42.05.73.07.91.07.07.12.09.34.05.65-.04.31-.13.52-.28.65-.91-.06-1.71-.12-2.4-.16-.69-.05-1.48-.07-2.37-.07s-1.66.02-2.37.07c-.72.05-1.54.1-2.48.16-.1-.12-.12-.34-.05-.65.07-.31.16-.53.28-.65.18,0,.5-.02.96-.07.45-.05.89-.13,1.32-.25.42-.12.66-.26.72-.42.19-.37.34-.85.46-1.44.12-.58.24-1.22.36-1.9l1.49-8.42c.05-.31.12-.71.19-1.2.07-.49.07-.88,0-1.16-.04-.28-.27-.47-.68-.58s-.83-.17-1.26-.18c-.43-.02-.71-.02-.83-.02-.02-.06-.02-.25,0-.56.02-.31.09-.52.21-.65,1.2-.15,2.38-.39,3.55-.69,1.16-.31,2.24-.71,3.22-1.2.12,0,.22.09.3.28.08.18.1.34.08.46-.02.09-.09.36-.23.79-.14.43-.27.86-.39,1.3-.12.43-.2.73-.22.88l-1.93,10.97ZM715.52,158.03c.11-.62.43-1.15.95-1.6.53-.45,1.1-.67,1.72-.67s1.11.22,1.48.67c.37.45.5.98.39,1.6-.11.62-.43,1.15-.95,1.6-.53.45-1.1.67-1.72.67s-1.11-.22-1.48-.67c-.37-.45-.5-.98-.39-1.6Z"/>
      </g>
    </g>
    <g class="cls-8">
      <rect class="cls-2" x="822.8" y="207.32" width="126.71" height="130.82" rx="4.86" ry="4.86"/>
    </g>
    <g class="cls-8">
      <g>
        <path class="cls-7" d="M872.23,154.74c.96,0,1.74.05,2.35.16.61.11,1.24.25,1.87.44.63.19,1.42.4,2.36.65-.02,1.17-.09,2.38-.2,3.63-.11,1.25-.21,2.18-.29,2.8,0,.15-.12.27-.39.35-.26.08-.47.12-.62.12-.22,0-.38-.06-.48-.18.04-.56-.04-1.2-.21-1.94s-.48-1.45-.9-2.13c-.42-.68-.97-1.24-1.65-1.69-.68-.45-1.5-.67-2.45-.67-1.23,0-2.25.26-3.05.79-.8.53-1.43,1.17-1.87,1.95-.45.77-.73,1.53-.86,2.27-.21,1.2-.07,2.21.42,3.01.49.8,1.17,1.51,2.03,2.13s1.73,1.25,2.6,1.9c.66.46,1.39.97,2.18,1.53.8.55,1.55,1.17,2.27,1.85.71.68,1.25,1.46,1.62,2.34.37.88.46,1.88.26,2.99-.29,1.64-1,3.08-2.13,4.33-1.13,1.25-2.47,2.22-4.03,2.92s-3.14,1.04-4.74,1.04c-1.51,0-2.94-.17-4.28-.51-1.34-.34-2.55-.62-3.63-.83-.03-.9-.02-1.85.02-2.87.04-1.02.09-1.91.15-2.69.06-.77.1-1.25.14-1.43.18-.15.38-.29.6-.39.22-.11.44-.16.65-.16.28,0,.42.14.44.42.02.43.1,1.03.26,1.78s.45,1.54.88,2.34c.43.8,1.05,1.47,1.87,2.01.81.54,1.9.81,3.26.81,1.45,0,2.8-.49,4.05-1.46,1.25-.97,2.03-2.34,2.34-4.1.22-1.27.11-2.25-.33-2.96s-1.08-1.33-1.89-1.85c-.82-.52-1.7-1.08-2.65-1.67-1.02-.68-2.07-1.43-3.14-2.25-1.08-.82-1.93-1.78-2.57-2.89-.64-1.11-.82-2.42-.56-3.93.28-1.6.95-3,2.01-4.19,1.06-1.19,2.32-2.11,3.79-2.75,1.47-.65,2.96-.97,4.48-.97Z"/>
        <path class="cls-7" d="M892.16,165.11c.86,0,1.62.28,2.28.83.66.55,1.14,1.3,1.44,2.22.3.92.35,1.98.14,3.15l-1.64,9.3c-.1.59-.08,1.09.06,1.5.14.42.46.62.96.62.43,0,.79-.09,1.07-.28.28-.18.45-.29.52-.32.06,0,.1.05.12.14.01.09.02.17,0,.23-.06.34-.19.63-.39.88-.21.16-.55.37-1.02.65-.47.28-.94.53-1.43.74-.49.22-.9.32-1.24.32-.65,0-1.17-.32-1.56-.97-.4-.65-.61-1.31-.64-1.99-.15.12-.47.35-.98.69-.51.34-1.09.69-1.73,1.04-.65.36-1.28.66-1.9.93-.62.26-1.13.39-1.53.39-1.48,0-2.64-.5-3.48-1.5-.84-1-1.13-2.23-.88-3.68.16-.93.56-1.72,1.18-2.38.63-.66,1.2-1.09,1.73-1.27.92-.31,1.94-.64,3.07-1,1.13-.35,2.18-.7,3.17-1.04.99-.34,1.71-.6,2.18-.79.26-.09.44-.21.52-.35.09-.14.16-.41.23-.81l.21-1.2c.12-.68.07-1.35-.15-2.01-.22-.66-.59-1.22-1.09-1.67-.51-.45-1.13-.67-1.87-.67s-1.38.25-1.84.74c-.46.5-.84,1.19-1.15,2.08-.53,1.45-1.37,2.18-2.51,2.18-.49,0-.84-.2-1.03-.6-.19-.4-.25-.83-.17-1.3.02-.09.08-.27.19-.53s.22-.46.33-.58c.54-.43,1.29-.94,2.26-1.53.97-.59,2.04-1.09,3.21-1.53,1.17-.43,2.3-.65,3.38-.65ZM886.64,182.75c.52,0,1.12-.12,1.78-.37.66-.25,1.23-.52,1.72-.81.48-.29.74-.52.77-.67l1.08-6.16c-.62.19-1.4.42-2.34.69-.94.28-1.65.49-2.1.65-.86.31-1.6.76-2.23,1.34-.63.58-1.02,1.31-1.17,2.17-.15.83.02,1.57.49,2.2.47.63,1.14.95,2.01.95Z"/>
        <path class="cls-7" d="M907.91,165.3h5.83c.15,0,.2.17.14.51-.08.46-.38.91-.88,1.34h-5.42l-2.09,11.85c-.43,2.47.35,3.7,2.36,3.7.68,0,1.32-.14,1.92-.42.6-.28.99-.48,1.17-.6.09.03.12.12.09.28-.06.34-.16.57-.31.69-.26.25-.65.57-1.17.97-.52.4-1.11.76-1.79,1.06-.67.31-1.38.46-2.12.46s-1.5-.14-2.17-.42c-.68-.28-1.18-.77-1.52-1.48-.34-.71-.39-1.71-.16-3.01l2.31-13.1h-2.64c-.06,0-.1-.05-.11-.16-.01-.11-.01-.19,0-.25.01-.06.13-.21.36-.44s.58-.56,1.05-1h1.67l.5-2.82c.37-.34.8-.73,1.3-1.18.5-.45.95-.86,1.35-1.25.41-.38.63-.59.67-.62.14-.12.3-.19.47-.19s.25.05.23.14l-1.04,5.92Z"/>
      </g>
    </g>
    <g class="cls-8">
      <path class="cls-7" d="M100.51,287.42v-29.16c0-1.03-.11-1.75-.33-2.14-.22-.39-.6-.59-1.14-.59s-1.38.18-2.51.55c-1.13.37-1.99.68-2.58.92-.44-.34-.66-.76-.66-1.26v-.07c0-.2.05-.32.15-.37,1.97-.89,3.9-1.78,5.79-2.69,1.89-.91,3.47-1.66,4.72-2.25,1.26-.59,1.91-.89,1.96-.89h.15c.25,0,.42.15.52.44s.17.54.22.74c-.39,2.41-.59,4.72-.59,6.94v29.82c0,1.08.01,2.09.04,3.03.02.93.13,1.7.33,2.29.1.25.47.47,1.11.66.64.2,1.32.33,2.03.41.71.07,1.22.11,1.51.11.15.2.23.54.26,1.03.02.49-.06.84-.26,1.03-1.48-.1-2.83-.18-4.06-.26-1.23-.07-2.56-.11-3.99-.11s-2.63.04-3.76.11c-1.13.07-2.44.16-3.91.26-.2-.2-.28-.54-.26-1.03.02-.49.11-.84.26-1.03.3,0,.8-.04,1.51-.11.71-.07,1.39-.21,2.03-.41.64-.2.98-.42,1.03-.66.2-.59.32-1.35.37-2.29.05-.93.07-1.94.07-3.03Z"/>
    </g>
    <g class="cls-1">
      <path class="cls-7" d="M309.19,285.1c-.49,1.18-1.01,2.52-1.55,4.02-.54,1.5-1.03,2.89-1.48,4.17s-.74,2.14-.89,2.58h-24.95c-.15-.1-.31-.26-.48-.48-.17-.22-.26-.41-.26-.55,2.02-2.26,4.08-4.62,6.2-7.09,2.12-2.46,4.13-4.9,6.05-7.31,1.92-2.41,3.57-4.62,4.95-6.64,1.48-2.17,2.42-4.06,2.84-5.68.42-1.62.63-3.32.63-5.09,0-2.46-.75-4.53-2.25-6.2-1.5-1.67-3.41-2.51-5.72-2.51-1.92,0-3.59.42-5.02,1.25-1.43.84-2.58,1.75-3.47,2.73-.89.99-1.48,1.72-1.77,2.21-.3,0-.6-.16-.92-.48-.32-.32-.48-.55-.48-.7.15-.44.55-1.19,1.22-2.25.66-1.06,1.59-2.16,2.77-3.32,1.18-1.15,2.55-2.14,4.1-2.95,1.55-.81,3.28-1.22,5.2-1.22,2.31,0,4.42.58,6.31,1.73,1.89,1.16,3.39,2.65,4.5,4.47,1.11,1.82,1.66,3.76,1.66,5.83s-.37,4.01-1.11,5.83c-.74,1.82-1.75,3.52-3.03,5.09-1.67,2.07-3.53,4.27-5.57,6.61-2.04,2.34-3.97,4.53-5.79,6.57-1.82,2.04-3.27,3.68-4.36,4.91h14.32c1.43,0,2.6-.45,3.51-1.37s1.76-2.3,2.55-4.17c.1-.3.37-.44.81-.44.15,0,.39.05.74.15.34.1.59.2.74.3Z"/>
    </g>
    <path class="cls-7" d="M494.97,249.41c1.23,0,2.58.36,4.06,1.07,1.48.71,2.74,1.76,3.8,3.14,1.06,1.38,1.59,3.05,1.59,5.02,0,1.53-.38,2.93-1.14,4.21-.76,1.28-1.67,2.39-2.73,3.32-1.06.93-2.01,1.67-2.84,2.21,1.38.2,2.85.76,4.43,1.7,1.57.94,2.92,2.23,4.02,3.87,1.11,1.65,1.66,3.65,1.66,6.02s-.53,4.69-1.59,6.68c-1.06,1.99-2.46,3.69-4.21,5.09-1.75,1.4-3.7,2.47-5.87,3.21-2.17.74-4.38,1.11-6.64,1.11-.94,0-2.1-.14-3.51-.41-1.4-.27-2.67-.7-3.8-1.29-.2-.15-.49-.49-.89-1.03-.39-.54-.59-1.11-.59-1.7,0-1.03.31-1.87.92-2.51.61-.64,1.32-.96,2.1-.96.98,0,1.76.38,2.33,1.14.57.76,1.14,1.44,1.73,2.03.69.69,1.51,1.17,2.47,1.44.96.27,1.91.41,2.84.41,1.28,0,2.57-.36,3.88-1.07,1.3-.71,2.4-1.89,3.28-3.54.89-1.65,1.33-3.85,1.33-6.61,0-1.97-.44-3.7-1.33-5.2-.89-1.5-2.03-2.7-3.43-3.58-1.4-.89-2.89-1.33-4.47-1.33-.79,0-1.59.12-2.4.37-.81.25-1.44.42-1.88.52-.3-.39-.44-.86-.44-1.4,0-.34.05-.59.15-.74,1.92-.44,3.74-1.11,5.46-1.99,1.72-.89,3.11-2.03,4.17-3.43,1.06-1.4,1.59-3.14,1.59-5.2,0-1.92-.66-3.52-1.99-4.8-1.33-1.28-3.03-1.92-5.09-1.92-1.53,0-2.85.36-3.99,1.07-1.13.71-2.03,1.45-2.69,2.21-.66.76-1.12,1.24-1.37,1.44-.2,0-.39-.17-.59-.52-.2-.34-.3-.69-.3-1.03.74-1.13,1.68-2.23,2.84-3.28,1.16-1.06,2.5-1.94,4.02-2.66,1.52-.71,3.22-1.07,5.09-1.07Z"/>
    <g class="cls-1">
      <path class="cls-7" d="M703.78,249.3c.39,0,.68.15.85.44.17.3.26.59.26.89v28.42h4.28c.24,0,.47.3.66.89.2.59.3,1.28.3,2.07,0,.54-.07.94-.22,1.18h-5.02v12.62c-.64.25-1.67.37-3.1.37-1.72,0-2.58-.2-2.58-.59v-12.4h-20.3c-.25-.15-.43-.36-.55-.63-.12-.27-.18-.5-.18-.7l23.47-30.71c.25-.3.59-.68,1.03-1.14.44-.47.81-.7,1.11-.7ZM699.2,257.93l-16.16,21.11h16.16v-21.11Z"/>
    </g>
    <g class="cls-8">
      <path class="cls-7" d="M886.19,267.27c2.85,0,5.28.64,7.27,1.92,1.99,1.28,3.53,2.89,4.61,4.83,1.08,1.94,1.62,3.95,1.62,6.02,0,2.46-.53,4.69-1.59,6.68-1.06,1.99-2.46,3.69-4.21,5.09-1.75,1.4-3.7,2.47-5.87,3.21-2.17.74-4.38,1.11-6.64,1.11-.94,0-2.1-.14-3.51-.41-1.4-.27-2.67-.7-3.8-1.29-.2-.15-.49-.49-.89-1.03-.39-.54-.59-1.11-.59-1.7,0-1.03.31-1.87.92-2.51.61-.64,1.32-.96,2.1-.96.98,0,1.76.38,2.33,1.14.56.76,1.14,1.44,1.73,2.03.69.69,1.51,1.17,2.47,1.44.96.27,1.91.41,2.84.41,1.28,0,2.57-.36,3.87-1.07,1.3-.71,2.4-1.89,3.29-3.54s1.33-3.85,1.33-6.61c0-1.52-.38-3.11-1.14-4.76-.76-1.65-1.98-3.05-3.65-4.21s-3.91-1.73-6.72-1.73c-.79,0-1.85.11-3.17.33s-2.29.48-2.88.77c-.15,0-.28-.11-.41-.33-.12-.22-.18-.45-.18-.7.54-2.71,1.08-5.41,1.62-8.12.54-2.71,1.04-5.23,1.51-7.57.47-2.34.82-4.24,1.07-5.72h10.63c.98,0,1.99-.05,3.03-.15,1.03-.1,2.24-.27,3.62-.52.24.15.45.27.63.37.17.1.26.25.26.44,0,.15-.09.53-.26,1.14-.17.62-.42,1.29-.74,2.03-.32.74-.7,1.38-1.14,1.92-.98.1-2.17.2-3.54.3-1.38.1-3,.15-4.87.15h-6.05c-.44,2.17-.88,4.37-1.29,6.61s-.85,4.37-1.29,6.38c.98-.39,2.28-.72,3.88-1,1.6-.27,2.87-.41,3.8-.41Z"/>
    </g>
  </g>
</svg>